{  "asset": {    "version": "2.0",    "generator": "THREE.GLTFExporter r167"  },  "scenes": [    {      "name": "AuxScene",      "nodes": [        2      ]    }  ],  "scene": 0,  "nodes": [    {      "mesh": 0    },    {      "mesh": 1    },    {      "children": [        0,        1      ]    }  ],  "bufferViews": [    {      "buffer": 0,      "byteOffset": 0,      "byteLength": 589248,      "target": 34962,      "byteStride": 12    },    {      "buffer": 0,      "byteOffset": 589248,      "byteLength": 589248,      "target": 34962,      "byteStride": 12    },    {      "buffer": 0,      "byteOffset": 1178496,      "byteLength": 358920,      "target": 34962,      "byteStride": 12    },    {      "buffer": 0,      "byteOffset": 1537416,      "byteLength": 358920,      "target": 34962,      "byteStride": 12    }  ],  "buffers": [    {      "byteLength": 1896336,      "uri": "data:application/octet-stream;base64,"    }  ],  "accessors": [    {      "bufferView": 0,      "componentType": 5126,      "count": 49104,      "max": [        56.16279602050781,        59.82558822631836,        3.1025993824005127      ],      "min": [        -56.16278839111328,        -59.82558059692383,        -3.1025993824005127      ],      "type": "VEC3"    },    {      "bufferView": 1,      "componentType": 5126,      "count": 49104,      "max": [        0.9984130263328552,        0.9982909560203552,        1      ],      "min": [        -0.9982909560203552,        -0.9982909560203552,        0.0397351011633873      ],      "type": "VEC3"    },    {      "bufferView": 2,      "componentType": 5126,      "count": 29910,      "max": [        56.16279602050781,        59.82558822631836,        -3.1025993824005127      ],      "min": [        -56.16278839111328,        -59.82558059692383,        -3.1025993824005127      ],      "type": "VEC3"    },    {      "bufferView": 3,      "componentType": 5126,      "count": 29910,      "max": [        0,        0,        -1      ],      "min": [        0,        0,        -1      ],      "type": "VEC3"    }  ],  "materials": [    {      "pbrMetallicRoughness": {        "baseColorFactor": [          0.45641102317066595,          0.45641102317066595,          0.45641102317066595,          1        ],        "metallicFactor": 0.5,        "roughnessFactor": 0.5      },      "doubleSided": true    }  ],  "meshes": [    {      "primitives": [        {          "mode": 4,          "attributes": {            "POSITION": 0,            "NORMAL": 1          },          "material": 0        }      ]    },    {      "primitives": [        {          "mode": 4,          "attributes": {            "POSITION": 2,            "NORMAL": 3          },          "material": 0        }      ]    }  ]}