{
  "accessors": [
    {
      "bufferView": 3,
      "componentType": 5126,
      "count": 4677,
      "max": [
        14.05842113494873,
        18.04691505432129,
        16.43694305419922
      ],
      "min": [
        -20.049388885498047,
        -17.52153778076172,
        -16.43694305419922
      ],
      "type": "VEC3"
    },
    {
      "bufferView": 3,
      "byteOffset": 56124,
      "componentType": 5126,
      "count": 4677,
      "max": [
        1.0,
        1.0,
        1.0
      ],
      "min": [
        -1.0,
        -1.0,
        -1.0
      ],
      "type": "VEC3"
    },
    {
      "bufferView": 4,
      "componentType": 5126,
      "count": 4677,
      "max": [
        1.0,
        1.0,
        1.0,
        1.0
      ],
      "min": [
        -1.0,
        -1.0,
        -1.0,
        -1.0
      ],
      "type": "VEC4"
    },
    {
      "bufferView": 2,
      "componentType": 5126,
      "count": 4677,
      "max": [
        0.9982929825782776,
        0.9965029954910278
      ],
      "min": [
        0.004244999960064888,
        0.003128000069409609
      ],
      "type": "VEC2"
    },
    {
      "bufferView": 1,
      "componentType": 5125,
      "count": 14892,
      "type": "SCALAR"
    },
    {
      "bufferView": 3,
      "byteOffset": 112248,
      "componentType": 5126,
      "count": 2921,
      "max": [
        14.05842113494873,
        17.917198181152344,
        16.336950302124023
      ],
      "min": [
        -19.59050178527832,
        -17.391820907592773,
        -16.336950302124023
      ],
      "type": "VEC3"
    },
    {
      "bufferView": 3,
      "byteOffset": 147300,
      "componentType": 5126,
      "count": 2921,
      "max": [
        1.0,
        1.0,
        1.0
      ],
      "min": [
        -1.0,
        -1.0,
        -1.0
      ],
      "type": "VEC3"
    },
    {
      "bufferView": 4,
      "byteOffset": 74832,
      "componentType": 5126,
      "count": 2921,
      "max": [
        1.0,
        1.0,
        1.0,
        1.0
      ],
      "min": [
        -1.0,
        -1.0,
        -1.0,
        -1.0
      ],
      "type": "VEC4"
    },
    {
      "bufferView": 2,
      "byteOffset": 37416,
      "componentType": 5126,
      "count": 2921,
      "max": [
        0.9982929825782776,
        0.9960740208625793
      ],
      "min": [
        0.004244999960064888,
        0.003128000069409609
      ],
      "type": "VEC2"
    },
    {
      "bufferView": 1,
      "byteOffset": 59568,
      "componentType": 5125,
      "count": 7041,
      "type": "SCALAR"
    },
    {
      "bufferView": 5,
      "componentType": 5126,
      "count": 7,
      "max": [
        100.0,
        0.0,
        0.0,
        0.0,
        0.0,
        100.0,
        3.714033312007814e-07,
        0.0,
        0.0,
        0.0,
        100.0,
        0.0,
        0.0,
        0.0,
        0.0,
        1.0
      ],
      "min": [
        1.0,
        0.0,
        0.0,
        0.0,
        0.0,
        1.0,
        0.0,
        0.0,
        0.0,
        -3.714033312007814e-07,
        1.0,
        0.0,
        0.0,
        0.0,
        0.0,
        1.0
      ],
      "type": "MAT4"
    },
    {
      "bufferView": 0,
      "componentType": 5123,
      "count": 4677,
      "type": "VEC4"
    },
    {
      "bufferView": 4,
      "byteOffset": 121568,
      "componentType": 5126,
      "count": 4677,
      "max": [
        1.0,
        0.0,
        0.0,
        0.0
      ],
      "min": [
        1.0,
        0.0,
        0.0,
        0.0
      ],
      "type": "VEC4"
    },
    {
      "bufferView": 0,
      "byteOffset": 37416,
      "componentType": 5123,
      "count": 2921,
      "type": "VEC4"
    },
    {
      "bufferView": 4,
      "byteOffset": 196400,
      "componentType": 5126,
      "count": 2921,
      "max": [
        1.0,
        0.0,
        0.0,
        0.0
      ],
      "min": [
        1.0,
        0.0,
        0.0,
        0.0
      ],
      "type": "VEC4"
    },
    {
      "bufferView": 6,
      "componentType": 5126,
      "count": 118,
      "max": [
        2.4583332538604736
      ],
      "min": [
        0.0
      ],
      "type": "SCALAR"
    },
    {
      "bufferView": 7,
      "componentType": 5126,
      "count": 118,
      "max": [
        5.2506610170866e-14,
        0.37110498547554016,
        1.4011014570769476e-13
      ],
      "min": [
        -0.37110498547554016,
        -3.077538224260934e-13,
        0.0
      ],
      "type": "VEC3"
    },
    {
      "bufferView": 6,
      "byteOffset": 472,
      "componentType": 5126,
      "count": 118,
      "max": [
        2.4583332538604736
      ],
      "min": [
        0.0
      ],
      "type": "SCALAR"
    },
    {
      "bufferView": 8,
      "componentType": 5126,
      "count": 118,
      "max": [
        3.2018872687770983e-13,
        2.1027624086400465e-13,
        1.0,
        1.0
      ],
      "min": [
        -3.520782190097327e-12,
        -8.616607427569534e-12,
        -0.009299867786467075,
        2.6631610694494157e-07
      ],
      "type": "VEC4"
    },
    {
      "bufferView": 6,
      "byteOffset": 944,
      "componentType": 5126,
      "count": 1,
      "max": [
        0.0
      ],
      "min": [
        0.0
      ],
      "type": "SCALAR"
    },
    {
      "bufferView": 7,
      "byteOffset": 1416,
      "componentType": 5126,
      "count": 1,
      "max": [
        0.0,
        0.0,
        0.0
      ],
      "min": [
        0.0,
        0.0,
        0.0
      ],
      "type": "VEC3"
    },
    {
      "bufferView": 6,
      "byteOffset": 948,
      "componentType": 5126,
      "count": 1,
      "max": [
        0.0
      ],
      "min": [
        0.0
      ],
      "type": "SCALAR"
    },
    {
      "bufferView": 8,
      "byteOffset": 1888,
      "componentType": 5126,
      "count": 1,
      "max": [
        5.563312397566245e-17,
        2.1005419625907962e-13,
        2.1005420981160677e-13,
        1.0
      ],
      "min": [
        5.563312397566245e-17,
        2.1005419625907962e-13,
        2.1005420981160677e-13,
        1.0
      ],
      "type": "VEC4"
    },
    {
      "bufferView": 6,
      "byteOffset": 952,
      "componentType": 5126,
      "count": 384,
      "max": [
        10.375
      ],
      "min": [
        0.0
      ],
      "type": "SCALAR"
    },
    {
      "bufferView": 7,
      "byteOffset": 1428,
      "componentType": 5126,
      "count": 384,
      "max": [
        0.04297000914812088,
        0.3046969771385193,
        1.4399560103323106e-20
      ],
      "min": [
        -0.585955023765564,
        -0.30079007148742676,
        -1.3552527156068805e-20
      ],
      "type": "VEC3"
    },
    {
      "bufferView": 6,
      "byteOffset": 2488,
      "componentType": 5126,
      "count": 387,
      "max": [
        10.375
      ],
      "min": [
        0.0
      ],
      "type": "SCALAR"
    },
    {
      "bufferView": 8,
      "byteOffset": 1904,
      "componentType": 5126,
      "count": 387,
      "max": [
        0.1767488270998001,
        0.12967219948768616,
        0.9982827305793762,
        1.0
      ],
      "min": [
        -0.09068989008665085,
        -0.1585725098848343,
        -0.850009560585022,
        -0.4860701858997345
      ],
      "type": "VEC4"
    },
    {
      "bufferView": 6,
      "byteOffset": 4036,
      "componentType": 5126,
      "count": 491,
      "max": [
        10.375
      ],
      "min": [
        0.0
      ],
      "type": "SCALAR"
    },
    {
      "bufferView": 7,
      "byteOffset": 6036,
      "componentType": 5126,
      "count": 491,
      "max": [
        0.17969299852848053,
        0.37110498547554016,
        0.2734459936618805
      ],
      "min": [
        -0.6328319907188416,
        -0.33985400199890137,
        -0.18750600516796112
      ],
      "type": "VEC3"
    },
    {
      "bufferView": 6,
      "byteOffset": 6000,
      "componentType": 5126,
      "count": 498,
      "max": [
        10.375
      ],
      "min": [
        0.0
      ],
      "type": "SCALAR"
    },
    {
      "bufferView": 8,
      "byteOffset": 8096,
      "componentType": 5126,
      "count": 498,
      "max": [
        0.2779400646686554,
        0.23775218427181244,
        0.9931769371032715,
        1.0
      ],
      "min": [
        -0.11439353972673416,
        -0.23516644537448883,
        -0.8571454286575317,
        -0.41578254103660583
      ],
      "type": "VEC4"
    },
    {
      "bufferView": 6,
      "byteOffset": 7992,
      "componentType": 5126,
      "count": 549,
      "max": [
        12.458333015441895
      ],
      "min": [
        0.0
      ],
      "type": "SCALAR"
    },
    {
      "bufferView": 7,
      "byteOffset": 11928,
      "componentType": 5126,
      "count": 549,
      "max": [
        0.14453600347042084,
        0.4804830551147461,
        9.317362419797304e-21
      ],
      "min": [
        -0.722678005695343,
        -0.2226630300283432,
        -2.0328790734103208e-20
      ],
      "type": "VEC3"
    },
    {
      "bufferView": 6,
      "byteOffset": 10188,
      "componentType": 5126,
      "count": 598,
      "max": [
        12.458333015441895
      ],
      "min": [
        0.0
      ],
      "type": "SCALAR"
    },
    {
      "bufferView": 8,
      "byteOffset": 16064,
      "componentType": 5126,
      "count": 598,
      "max": [
        0.24650312960147858,
        0.22844363749027252,
        0.9874700307846069,
        1.0
      ],
      "min": [
        -0.2109823226928711,
        -0.1379145234823227,
        -0.8284240961074829,
        -0.4989168047904968
      ],
      "type": "VEC4"
    },
    {
      "bufferView": 6,
      "byteOffset": 12580,
      "componentType": 5126,
      "count": 294,
      "max": [
        6.208333492279053
      ],
      "min": [
        0.0
      ],
      "type": "SCALAR"
    },
    {
      "bufferView": 7,
      "byteOffset": 18516,
      "componentType": 5126,
      "count": 294,
      "max": [
        0.17578700184822083,
        0.285165011882782,
        6.776263578034403e-21
      ],
      "min": [
        -0.4297010004520416,
        -0.2773520052433014,
        -6.776263578034403e-21
      ],
      "type": "VEC3"
    },
    {
      "bufferView": 6,
      "byteOffset": 13756,
      "componentType": 5126,
      "count": 298,
      "max": [
        6.208333492279053
      ],
      "min": [
        0.0
      ],
      "type": "SCALAR"
    },
    {
      "bufferView": 8,
      "byteOffset": 25632,
      "componentType": 5126,
      "count": 298,
      "max": [
        0.0997147411108017,
        0.030333956703543663,
        1.0,
        1.0
      ],
      "min": [
        -0.001905323239043355,
        -0.03556034341454506,
        -0.847200334072113,
        -0.484879732131958
      ],
      "type": "VEC4"
    }
  ],
  "animations": [
    {
      "channels": [
        {
          "sampler": 0,
          "target": {
            "node": 17,
            "path": "translation"
          }
        },
        {
          "sampler": 1,
          "target": {
            "node": 17,
            "path": "rotation"
          }
        }
      ],
      "name": "glados_ball_reference_skeleton|drop",
      "samplers": [
        {
          "input": 15,
          "interpolation": "LINEAR",
          "output": 16
        },
        {
          "input": 17,
          "interpolation": "LINEAR",
          "output": 18
        }
      ]
    },
    {
      "channels": [
        {
          "sampler": 0,
          "target": {
            "node": 17,
            "path": "translation"
          }
        },
        {
          "sampler": 1,
          "target": {
            "node": 17,
            "path": "rotation"
          }
        }
      ],
      "name": "glados_ball_reference_skeleton|idle",
      "samplers": [
        {
          "input": 19,
          "interpolation": "LINEAR",
          "output": 20
        },
        {
          "input": 21,
          "interpolation": "LINEAR",
          "output": 22
        }
      ]
    },
    {
      "channels": [
        {
          "sampler": 0,
          "target": {
            "node": 17,
            "path": "translation"
          }
        },
        {
          "sampler": 1,
          "target": {
            "node": 17,
            "path": "rotation"
          }
        }
      ],
      "name": "glados_ball_reference_skeleton|look_02",
      "samplers": [
        {
          "input": 23,
          "interpolation": "LINEAR",
          "output": 24
        },
        {
          "input": 25,
          "interpolation": "LINEAR",
          "output": 26
        }
      ]
    },
    {
      "channels": [
        {
          "sampler": 0,
          "target": {
            "node": 17,
            "path": "translation"
          }
        },
        {
          "sampler": 1,
          "target": {
            "node": 17,
            "path": "rotation"
          }
        }
      ],
      "name": "glados_ball_reference_skeleton|look_03",
      "samplers": [
        {
          "input": 27,
          "interpolation": "LINEAR",
          "output": 28
        },
        {
          "input": 29,
          "interpolation": "LINEAR",
          "output": 30
        }
      ]
    },
    {
      "channels": [
        {
          "sampler": 0,
          "target": {
            "node": 17,
            "path": "translation"
          }
        },
        {
          "sampler": 1,
          "target": {
            "node": 17,
            "path": "rotation"
          }
        }
      ],
      "name": "glados_ball_reference_skeleton|look_04",
      "samplers": [
        {
          "input": 31,
          "interpolation": "LINEAR",
          "output": 32
        },
        {
          "input": 33,
          "interpolation": "LINEAR",
          "output": 34
        }
      ]
    },
    {
      "channels": [
        {
          "sampler": 0,
          "target": {
            "node": 17,
            "path": "translation"
          }
        },
        {
          "sampler": 1,
          "target": {
            "node": 17,
            "path": "rotation"
          }
        }
      ],
      "name": "glados_ball_reference_skeleton|turn",
      "samplers": [
        {
          "input": 35,
          "interpolation": "LINEAR",
          "output": 36
        },
        {
          "input": 37,
          "interpolation": "LINEAR",
          "output": 38
        }
      ]
    }
  ],
  "asset": {
    "extras": {
      "author": "NO DONT EAT ME CASEOH (Ferris wheel) (https://sketchfab.com/NO.DONT.EAT.ME.CASEOH)",
      "license": "CC-BY-4.0 (http://creativecommons.org/licenses/by/4.0/)",
      "source": "https://sketchfab.com/3d-models/portal-wheatly-rig-68c726994b674da1b9db8b0d61580f49",
      "title": "Portal Wheatly Rig"
    },
    "generator": "Sketchfab-16.21.0",
    "version": "2.0"
  },
  "bufferViews": [
    {
      "buffer": 0,
      "byteLength": 60784,
      "byteStride": 8,
      "name": "shortBufferViews",
      "target": 34962
    },
    {
      "buffer": 0,
      "byteLength": 87732,
      "byteOffset": 60784,
      "name": "floatBufferViews",
      "target": 34963
    },
    {
      "buffer": 0,
      "byteLength": 60784,
      "byteOffset": 148516,
      "byteStride": 8,
      "name": "floatBufferViews",
      "target": 34962
    },
    {
      "buffer": 0,
      "byteLength": 182352,
      "byteOffset": 209300,
      "byteStride": 12,
      "name": "floatBufferViews",
      "target": 34962
    },
    {
      "buffer": 0,
      "byteLength": 243136,
      "byteOffset": 391652,
      "byteStride": 16,
      "name": "floatBufferViews",
      "target": 34962
    },
    {
      "buffer": 0,
      "byteLength": 448,
      "byteOffset": 634788,
      "name": "floatBufferViews"
    },
    {
      "buffer": 0,
      "byteLength": 14948,
      "byteOffset": 635236,
      "name": "floatBufferViews"
    },
    {
      "buffer": 0,
      "byteLength": 22044,
      "byteOffset": 650184,
      "byteStride": 12,
      "name": "floatBufferViews"
    },
    {
      "buffer": 0,
      "byteLength": 30400,
      "byteOffset": 672228,
      "byteStride": 16,
      "name": "floatBufferViews"
    }
  ],
  "buffers": [
    {
      "byteLength": 702628,
      "uri": "scene.bin"
    }
  ],
  "images": [
    {
      "uri": "textures/glados_ball_01_baseColor.png"
    },
    {
      "uri": "textures/glados_ball_01_metallicRoughness.png"
    },
    {
      "uri": "textures/glados_ball_01_normal.png"
    }
  ],
  "materials": [
    {
      "doubleSided": true,
      "name": "glados_ball_01",
      "normalTexture": {
        "index": 2
      },
      "pbrMetallicRoughness": {
        "baseColorTexture": {
          "index": 0
        },
        "metallicFactor": 0.0,
        "metallicRoughnessTexture": {
          "index": 1
        }
      }
    }
  ],
  "meshes": [
    {
      "name": "glados_ball_reference_glados_ball_01_0",
      "primitives": [
        {
          "attributes": {
            "JOINTS_0": 11,
            "NORMAL": 1,
            "POSITION": 0,
            "TANGENT": 2,
            "TEXCOORD_0": 3,
            "WEIGHTS_0": 12
          },
          "indices": 4,
          "material": 0,
          "mode": 4
        }
      ]
    },
    {
      "name": "glados_ball_reference_lod1_glados_ball_01_0",
      "primitives": [
        {
          "attributes": {
            "JOINTS_0": 13,
            "NORMAL": 6,
            "POSITION": 5,
            "TANGENT": 7,
            "TEXCOORD_0": 8,
            "WEIGHTS_0": 14
          },
          "indices": 9,
          "material": 0,
          "mode": 4
        }
      ]
    }
  ],
  "nodes": [
    {
      "children": [
        1
      ],
      "matrix": [
        0.017820918932557106,
        0.0,
        0.0,
        0.0,
        0.0,
        3.957038903780653e-18,
        -0.017820918932557106,
        0.0,
        0.0,
        0.017820918932557106,
        3.957038903780653e-18,
        0.0,
        0.0,
        0.0,
        0.0,
        1.0
      ],
      "name": "Sketchfab_model"
    },
    {
      "children": [
        2
      ],
      "matrix": [
        0.009999999776482582,
        0.0,
        0.0,
        0.0,
        0.0,
        0.0,
        0.009999999776482582,
        0.0,
        0.0,
        -0.009999999776482582,
        0.0,
        0.0,
        0.0,
        0.0,
        0.0,
        1.0
      ],
      "name": "5f5982dc3b404a76bbd5c180e92f56e6.fbx"
    },
    {
      "children": [
        3
      ],
      "name": "Object_2"
    },
    {
      "children": [
        4,
        5,
        6
      ],
      "name": "RootNode"
    },
    {
      "name": "glados_ball_reference",
      "rotation": [
        -0.7071068286895752,
        0.0,
        0.0,
        0.7071067094802856
      ],
      "scale": [
        100.0,
        100.0,
        100.0
      ]
    },
    {
      "name": "glados_ball_reference_lod1",
      "rotation": [
        -0.7071068286895752,
        0.0,
        0.0,
        0.7071067094802856
      ],
      "scale": [
        100.0,
        100.0,
        100.0
      ]
    },
    {
      "children": [
        7
      ],
      "name": "glados_ball_reference_skeleton",
      "rotation": [
        -0.7071068286895752,
        0.0,
        0.0,
        0.7071067094802856
      ],
      "scale": [
        100.0,
        100.0,
        100.0
      ]
    },
    {
      "children": [
        8,
        10,
        12,
        9,
        11
      ],
      "name": "Object_7"
    },
    {
      "children": [
        13,
        15
      ],
      "name": "_rootJoint"
    },
    {
      "matrix": [
        100.0,
        0.0,
        0.0,
        0.0,
        0.0,
        1.1714553645826799e-13,
        -100.00000000001329,
        0.0,
        0.0,
        100.00000000001329,
        1.1714553645826799e-13,
        0.0,
        0.0,
        0.0,
        0.0,
        1.0
      ],
      "name": "Object_9"
    },
    {
      "mesh": 0,
      "name": "Object_10",
      "skin": 0
    },
    {
      "matrix": [
        100.0,
        0.0,
        0.0,
        0.0,
        0.0,
        1.1714553645826799e-13,
        -100.00000000001329,
        0.0,
        0.0,
        100.00000000001329,
        1.1714553645826799e-13,
        0.0,
        0.0,
        0.0,
        0.0,
        1.0
      ],
      "name": "Object_11"
    },
    {
      "mesh": 1,
      "name": "Object_12",
      "skin": 0
    },
    {
      "children": [
        14
      ],
      "name": "polymsh62_00",
      "rotation": [
        0.7070635557174683,
        2.635573981280004e-09,
        -4.313351746532135e-05,
        0.7071499824523926
      ]
    },
    {
      "name": "polymsh62_end_04",
      "rotation": [
        -1.3552527156068805e-20,
        3.3881317890172014e-21,
        1.730461841460934e-21,
        1.0
      ],
      "translation": [
        2.5849394142282115e-25,
        0.0010000000474974513,
        0.0
      ]
    },
    {
      "children": [
        16
      ],
      "name": "Scene_Root_01",
      "rotation": [
        0.7070635557174683,
        2.635573981280004e-09,
        -4.313351746532135e-05,
        0.7071499824523926
      ]
    },
    {
      "children": [
        17
      ],
      "name": "root_02",
      "rotation": [
        -1.355257077692142e-20,
        2.1027624086400465e-13,
        2.1027624086400465e-13,
        1.0
      ]
    },
    {
      "children": [
        18
      ],
      "name": "bone_01_03",
      "rotation": [
        9.103163535473247e-12,
        7.727858338055921e-14,
        0.013518092222511768,
        0.9999086260795593
      ],
      "scale": [
        0.9999998807907104,
        0.9999999403953552,
        1.0
      ],
      "translation": [
        -0.04687599465250969,
        0.19531799852848053,
        4.320099833421409e-12
      ]
    },
    {
      "name": "bone_01_end_05",
      "rotation": [
        -5.1222419467635774e-39,
        3.3881317890172014e-21,
        1.51181898040908e-18,
        1.0
      ],
      "translation": [
        0.0,
        0.0010000000474974513,
        -3.3881317890172014e-21
      ]
    }
  ],
  "samplers": [
    {
      "magFilter": 9729,
      "minFilter": 9987,
      "wrapS": 10497,
      "wrapT": 10497
    }
  ],
  "scene": 0,
  "scenes": [
    {
      "name": "Sketchfab_Scene",
      "nodes": [
        0
      ]
    }
  ],
  "skins": [
    {
      "inverseBindMatrices": 10,
      "joints": [
        8,
        13,
        14,
        15,
        16,
        17,
        18
      ],
      "skeleton": 8
    }
  ],
  "textures": [
    {
      "sampler": 0,
      "source": 0
    },
    {
      "sampler": 0,
      "source": 1
    },
    {
      "sampler": 0,
      "source": 2
    }
  ]
}
